<svg width="379" height="229" viewBox="0 0 379 229" fill="none" xmlns="http://www.w3.org/2000/svg">
<path d="M20.4139 163.59L4.29121 163.62V213H20.4139C37.211 213 47.4792 203.682 47.4792 188.356C47.4792 172.908 37.211 163.528 20.4139 163.59ZM20.1994 200.647H17.0729V175.85H20.0768C28.935 175.85 34.3297 180.571 34.3297 188.326C34.3297 195.988 28.9657 200.647 20.1994 200.647ZM85.9775 175.789V163.59H53.9467V213H85.9775V200.709H66.9123V193.628H82.6059V182.686H66.9123V175.789H85.9775ZM125.334 175.789V163.467H93.3033V213.061H106.269V194.762H121.962V183.789H106.269V175.789H125.334ZM154.729 214.103C162.239 214.103 168.522 211.13 173.242 206.839L165.763 196.877C162.576 199.728 158.867 201.69 154.729 201.69C147.679 201.69 141.058 196.05 141.058 188.387C141.058 180.816 147.403 175.023 155.005 175.023C158.652 175.023 162.668 176.831 165.702 179.59L173.242 169.904C168.185 165.306 161.35 162.517 154.974 162.425C139.587 162.425 127.756 173.674 127.756 188.295C127.756 203.805 140.782 214.103 154.729 214.103ZM201.626 214.257C217.013 214.257 228.783 203.069 228.783 188.356C228.783 173.521 217.013 162.272 201.656 162.272C186.3 162.272 174.53 173.521 174.53 188.356C174.53 203.069 186.269 214.257 201.626 214.257ZM201.656 201.72C193.81 201.72 187.802 195.866 187.802 188.264C187.802 180.632 193.81 174.747 201.656 174.747C209.503 174.747 215.511 180.632 215.511 188.264C215.511 195.866 209.503 201.72 201.656 201.72ZM264.768 163.528V187.621L239.45 163.099H235.22V213.031H248.339V188.877L273.749 213.49H277.917V163.528H264.768ZM284.385 194.149H310.439V183.391H284.385V194.149Z" fill="#FCFBFB"/>
<path d="M328.83 163.283L314.73 166.992V179.896L319.542 178.732V213H332.661V163.283H328.83ZM357.826 162.486C347.282 162.486 339.129 170.425 339.129 180.05C339.129 188.356 346.27 195.927 354.516 195.927C354.883 195.927 355.221 195.896 355.588 195.866L345.289 212.939H360.339C375.328 187.621 376.493 185.904 376.493 180.203C376.493 170.486 368.431 162.486 357.826 162.486ZM357.795 185.843C354.761 185.843 352.217 183.329 352.217 180.264C352.217 176.862 354.699 174.502 357.795 174.502C360.799 174.502 363.374 176.862 363.374 180.264C363.374 183.391 360.799 185.843 357.795 185.843Z" fill="#DA3232"/>
<circle cx="188.899" cy="81.3604" r="28.3443" stroke="#FCFBFB" stroke-width="9.54546"/>
<path fill-rule="evenodd" clip-rule="evenodd" d="M155.222 50.1838C155.222 36.1313 163.807 24.0839 176.018 19V19.9197C168.377 24.3843 163.243 32.6742 163.243 42.1633C163.243 56.3809 174.768 67.9066 188.986 67.9066C203.204 67.9066 214.729 56.3809 214.729 42.1633C214.729 32.8451 209.778 24.6832 202.364 20.1645V19.1738C214.357 24.3546 222.75 36.289 222.75 50.1838C222.75 55.1353 221.684 59.8379 219.769 64.0746C227.892 64.4415 235.908 67.7264 242.111 73.9292C251.957 83.7754 254.451 98.19 249.592 110.35L248.899 109.667C250.988 101.203 248.725 91.8859 242.111 85.2719C232.058 75.2185 215.758 75.2185 205.704 85.2719C195.651 95.3253 195.651 111.625 205.704 121.679C212.389 128.364 221.836 130.603 230.372 128.398L231.039 129.056C218.826 134.053 204.277 131.594 194.362 121.679C192.23 119.547 190.443 117.201 189 114.71C187.558 117.201 185.77 119.547 183.639 121.679C173.668 131.649 159.012 134.08 146.757 128.972L147.4 128.338C155.995 130.643 165.551 128.423 172.296 121.678C182.349 111.625 182.349 95.3253 172.296 85.2719C162.242 75.2185 145.943 75.2185 135.889 85.2719C129.335 91.826 127.054 101.035 129.045 109.437L128.327 110.145C123.578 98.0283 126.098 83.7202 135.889 73.9292C142.085 67.7334 150.09 64.4489 158.204 64.0759C156.288 59.8388 155.222 55.1358 155.222 50.1838ZM188.986 89.381C193.344 89.381 196.877 85.848 196.877 81.4898C196.877 77.1317 193.344 73.5987 188.986 73.5987C184.628 73.5987 181.095 77.1317 181.095 81.4898C181.095 85.848 184.628 89.381 188.986 89.381Z" fill="#FCFBFB"/>
</svg>
