<svg width="553" height="151" viewBox="0 0 553 151" fill="none" xmlns="http://www.w3.org/2000/svg">
<g clip-path="url(#clip0)">
<path d="M61.0156 46.0312L40.4688 46.0703V109H61.0156C82.4219 109 95.5078 97.125 95.5078 77.5938C95.5078 57.9062 82.4219 45.9531 61.0156 46.0312ZM60.7422 93.2578H56.7578V61.6562H60.5859C71.875 61.6562 78.75 67.6719 78.75 77.5547C78.75 87.3203 71.9141 93.2578 60.7422 93.2578ZM144.57 61.5781V46.0312H103.75V109H144.57V93.3359H120.273V84.3125H140.273V70.3672H120.273V61.5781H144.57ZM194.727 61.5781V45.875H153.906V109.078H170.43V85.7578H190.43V71.7734H170.43V61.5781H194.727ZM232.188 110.406C241.758 110.406 249.766 106.617 255.781 101.148L246.25 88.4531C242.188 92.0859 237.461 94.5859 232.188 94.5859C223.203 94.5859 214.766 87.3984 214.766 77.6328C214.766 67.9844 222.852 60.6016 232.539 60.6016C237.188 60.6016 242.305 62.9062 246.172 66.4219L255.781 54.0781C249.336 48.2188 240.625 44.6641 232.5 44.5469C212.891 44.5469 197.812 58.8828 197.812 77.5156C197.812 97.2812 214.414 110.406 232.188 110.406ZM291.953 110.602C311.562 110.602 326.562 96.3438 326.562 77.5938C326.562 58.6875 311.562 44.3516 291.992 44.3516C272.422 44.3516 257.422 58.6875 257.422 77.5938C257.422 96.3438 272.383 110.602 291.953 110.602ZM291.992 94.625C281.992 94.625 274.336 87.1641 274.336 77.4766C274.336 67.75 281.992 60.25 291.992 60.25C301.992 60.25 309.648 67.75 309.648 77.4766C309.648 87.1641 301.992 94.625 291.992 94.625ZM372.422 45.9531V76.6562L340.156 45.4062H334.766V109.039H351.484V78.2578L383.867 109.625H389.18V45.9531H372.422Z" fill="#FCFBFB"/>
<path d="M397.422 84.9766H430.625V71.2656H397.422V84.9766ZM454.062 45.6406L436.094 50.3672V66.8125L442.227 65.3281V109H458.945V45.6406H454.062ZM491.016 44.625C477.578 44.625 467.188 54.7422 467.188 67.0078C467.188 77.5938 476.289 87.2422 486.797 87.2422C487.266 87.2422 487.695 87.2031 488.164 87.1641L475.039 108.922H494.219C513.32 76.6562 514.805 74.4688 514.805 67.2031C514.805 54.8203 504.531 44.625 491.016 44.625ZM490.977 74.3906C487.109 74.3906 483.867 71.1875 483.867 67.2812C483.867 62.9453 487.031 59.9375 490.977 59.9375C494.805 59.9375 498.086 62.9453 498.086 67.2812C498.086 71.2656 494.805 74.3906 490.977 74.3906Z" fill="#DA3232"/>
</g>
<defs>
<clipPath id="clip0">
<rect width="553" height="151" fill="white"/>
</clipPath>
</defs>
</svg>
